# xmcd
#
# Track frame offsets: 
#        182
#        14380
#        25735
#        38602
#        53550
#        67920
#        81307
#        94450
#        106867
#        120850
#        134077
#        146360
#        157575
#        170135
#        181945
#        195625
#        207867
#        219425
#        231740
#        244862
#        257482
#        272555
#        284220
#        297497
#        309525
#
# Disc length: 4284 seconds
#
# Revision: 15
# Processed by: cddbd v1.5.2PL0 Copyright (c) Steve Scherf et al.
# Submitted via: ExactAudioCopyFreeDBPlugin 1.0
#
DISCID=6c10ba19
DTITLE=Various Artist - The Complete Stax-Volt Singles 1959-1968 (Vol
DTITLE=ume 6)
DYEAR=1991
DGENRE=Soul
TTITLE0=Albert King - Laundromat Blues
TTITLE1=The Mad Lads - Sugar, Sugar
TTITLE2=William Bell - Share What You Got (But Keep What You Need)
TTITLE3=William Bell - Marching Off to War
TTITLE4=Otis Redding - My Lover's Prayer
TTITLE5=Mable John - Your Good Thing (Is About to End)
TTITLE6=Johnnie Taylor - I Got to Love Somebody's Baby
TTITLE7=The Mad Lads - I Want a Girl
TTITLE8=Eddie Floyd - Knock on Wood
TTITLE9=Carla Thomas - B-A-B-Y
TTITLE10=Booker T. and The MG's - My Sweet Potato
TTITLE11=Booker T. and The MG's - Booker Loo
TTITLE12=Albert King - Oh Pretty Woman
TTITLE13=Sam and Dave - Said I Wasn't Gonna Tell Nobody
TTITLE14=William Bell - Never Like This Before
TTITLE15=Otis Redding - Fa-Fa-Fa-Fa-Fa (Sad Song)
TTITLE16=The Mad Lads - Patch My Heart
TTITLE17=Rufus Thomas - Sister's Got a Boyfriend
TTITLE18=Ruby Johnson - Come to Me My Darling
TTITLE19=Ruby Johnson - When My Love Comes Down
TTITLE20=Otis Redding - Try a Little Tenderness
TTITLE21=Albert King - Crosscut Saw
TTITLE22=Johnnie Taylor - Little Bluebird
TTITLE23=Johnnie Taylor - Toe Hold
TTITLE24=Booker T. and The MG's - Jingle Bells
EXTD=
EXTT0=
EXTT1=
EXTT2=
EXTT3=
EXTT4=
EXTT5=
EXTT6=
EXTT7=
EXTT8=
EXTT9=
EXTT10=
EXTT11=
EXTT12=
EXTT13=
EXTT14=
EXTT15=
EXTT16=
EXTT17=
EXTT18=
EXTT19=
EXTT20=
EXTT21=
EXTT22=
EXTT23=
EXTT24=
PLAYORDER=
